<svg width="30" height="30" viewBox="0 0 30 30" fill="none" xmlns="http://www.w3.org/2000/svg">
<path d="M5.98287 12.1872L5.98287 12.1875L5.98287 13.125C5.98287 17.2167 5.13631 19.5436 4.41067 20.7808C4.2734 21.0163 4.20107 21.284 4.20107 21.5566C4.20107 21.8292 4.2734 22.0969 4.41067 22.3325L4.41152 22.3339L4.4115 22.3339C4.54367 22.5697 4.73688 22.7655 4.97084 22.9009C5.2048 23.0362 5.47088 23.1061 5.74115 23.1031L5.74224 23.1031L10.5469 23.1031H10.6469V23.2031V23.4375C10.6469 24.592 11.1056 25.6993 11.9219 26.5156C12.7383 27.332 13.8455 27.7906 15.0001 27.7906C16.1546 27.7906 17.2618 27.332 18.0782 26.5156C18.8946 25.6993 19.3532 24.592 19.3532 23.4375V23.2031V23.1031H19.4532H24.2579H24.259C24.5292 23.1061 24.7953 23.0362 25.0293 22.9009C25.2632 22.7655 25.4564 22.5697 25.5886 22.3339L25.5894 22.3324C25.7267 22.0969 25.799 21.8292 25.799 21.5566C25.799 21.2841 25.7267 21.0164 25.5895 20.7809C25.5895 20.7809 25.5895 20.7809 25.5894 20.7808L25.6758 20.7305L5.98287 12.1872ZM5.98287 12.1872C5.97982 11.0011 6.21081 9.82609 6.6626 8.7294C7.11439 7.6327 7.77811 6.63592 8.61573 5.79614C9.45336 4.95636 10.4484 4.29008 11.544 3.83548C12.6395 3.38087 13.8139 3.14687 15.0001 3.14688H15.07L5.98287 12.1872ZM11.9532 23.1031H11.8532V23.2031V23.4375C11.8532 24.2721 12.1847 25.0725 12.7749 25.6627C13.365 26.2528 14.1655 26.5844 15.0001 26.5844C15.8347 26.5844 16.6351 26.2528 17.2252 25.6627C17.8154 25.0725 18.1469 24.2721 18.1469 23.4375V23.2031V23.1031H18.0469H11.9532ZM15.0001 4.35312L14.9999 4.35313L24.5437 21.3954C24.5437 21.3954 24.5437 21.3953 24.5437 21.3953C23.7568 20.0298 22.811 17.4928 22.811 13.125V12.293C22.811 7.95074 19.3348 4.37688 15.0592 4.35312H15.0587L15.0001 4.35312ZM5.7444 21.8969H24.2557L7.28912 12.1875H7.18912V12.1877V13.125C7.18912 17.4929 6.24328 20.0299 5.45638 21.3954C5.42706 21.4462 5.41163 21.5038 5.41163 21.5625C5.41163 21.6201 5.42652 21.6768 5.45483 21.7269C5.48172 21.7799 5.52322 21.8241 5.57445 21.8542C5.62585 21.8844 5.68485 21.8992 5.7444 21.8969Z" fill="#4E3114" stroke="#F2E7DB" stroke-width="0.2"/>
</svg>
