<svg width="55" height="55" viewBox="0 0 55 55" fill="none" xmlns="http://www.w3.org/2000/svg">
<path d="M10.0088 27.6612C10.3106 27.6612 10.5554 27.4164 10.5554 27.1146V26.2947C10.5554 25.9929 10.3106 25.7481 10.0088 25.7481C9.70695 25.7481 9.46216 25.9929 9.46216 26.2947V27.1146C9.46216 27.4165 9.70695 27.6612 10.0088 27.6612Z" fill="#794F23"/>
<path d="M14.1081 27.6612C14.4099 27.6612 14.6547 27.4164 14.6547 27.1146V26.2947C14.6547 25.9929 14.4099 25.7481 14.1081 25.7481C13.8063 25.7481 13.5615 25.9929 13.5615 26.2947V27.1146C13.5615 27.4165 13.8063 27.6612 14.1081 27.6612Z" fill="#794F23"/>
<path d="M10.0088 30.3031C9.70695 30.3031 9.46216 30.5479 9.46216 30.8497V31.6696C9.46216 31.9715 9.70695 32.2163 10.0088 32.2163C10.3106 32.2163 10.5554 31.9715 10.5554 31.6696V30.8497C10.5554 30.5479 10.3106 30.3031 10.0088 30.3031Z" fill="#794F23"/>
<path d="M14.1081 30.3031C13.8063 30.3031 13.5615 30.5479 13.5615 30.8497V31.6696C13.5615 31.9715 13.8063 32.2163 14.1081 32.2163C14.4099 32.2163 14.6547 31.9715 14.6547 31.6696V30.8497C14.6547 30.5479 14.4099 30.3031 14.1081 30.3031Z" fill="#794F23"/>
<path d="M19.3467 32.9451C19.0448 32.9451 18.8 33.1899 18.8 33.4917V34.3116C18.8 34.6134 19.0448 34.8582 19.3467 34.8582C19.6485 34.8582 19.8933 34.6134 19.8933 34.3116V33.4917C19.8933 33.1899 19.6485 32.9451 19.3467 32.9451Z" fill="#794F23"/>
<path d="M23.4233 32.9451C23.1215 32.9451 22.8767 33.1899 22.8767 33.4917V34.3116C22.8767 34.6134 23.1215 34.8582 23.4233 34.8582C23.7251 34.8582 23.9699 34.6134 23.9699 34.3116V33.4917C23.9699 33.1899 23.7251 32.9451 23.4233 32.9451Z" fill="#794F23"/>
<path d="M31.5769 34.8582C31.8787 34.8582 32.1235 34.6134 32.1235 34.3116V33.4917C32.1235 33.1899 31.8787 32.9451 31.5769 32.9451C31.2751 32.9451 31.0303 33.1899 31.0303 33.4917V34.3116C31.0303 34.6135 31.2751 34.8582 31.5769 34.8582Z" fill="#794F23"/>
<path d="M27.5002 32.9451C27.1984 32.9451 26.9536 33.1899 26.9536 33.4917V34.3116C26.9536 34.6134 27.1984 34.8582 27.5002 34.8582C27.8021 34.8582 28.0468 34.6134 28.0468 34.3116V33.4917C28.0468 33.1899 27.8021 32.9451 27.5002 32.9451Z" fill="#794F23"/>
<path d="M35.6538 34.8582C35.9556 34.8582 36.2004 34.6134 36.2004 34.3116V33.4917C36.2004 33.1899 35.9556 32.9451 35.6538 32.9451C35.352 32.9451 35.1072 33.1899 35.1072 33.4917V34.3116C35.1072 34.6135 35.352 34.8582 35.6538 34.8582Z" fill="#794F23"/>
<path d="M19.3467 36.4069C19.0448 36.4069 18.8 36.6517 18.8 36.9535V37.7734C18.8 38.0753 19.0448 38.32 19.3467 38.32C19.6485 38.32 19.8933 38.0753 19.8933 37.7734V36.9535C19.8933 36.6517 19.6485 36.4069 19.3467 36.4069Z" fill="#794F23"/>
<path d="M23.4233 36.4069C23.1215 36.4069 22.8767 36.6517 22.8767 36.9535V37.7734C22.8767 38.0753 23.1215 38.32 23.4233 38.32C23.7251 38.32 23.9699 38.0753 23.9699 37.7734V36.9535C23.9699 36.6517 23.7251 36.4069 23.4233 36.4069Z" fill="#794F23"/>
<path d="M31.5769 38.32C31.8787 38.32 32.1235 38.0753 32.1235 37.7734V36.9535C32.1235 36.6517 31.8787 36.4069 31.5769 36.4069C31.2751 36.4069 31.0303 36.6517 31.0303 36.9535V37.7734C31.0303 38.0753 31.2751 38.32 31.5769 38.32Z" fill="#794F23"/>
<path d="M35.6538 38.32C35.9556 38.32 36.2004 38.0753 36.2004 37.7734V36.9535C36.2004 36.6517 35.9556 36.4069 35.6538 36.4069C35.352 36.4069 35.1072 36.6517 35.1072 36.9535V37.7734C35.1072 38.0753 35.352 38.32 35.6538 38.32Z" fill="#794F23"/>
<path d="M19.3467 30.1209C19.6485 30.1209 19.8933 29.8762 19.8933 29.5743V28.7544C19.8933 28.4526 19.6485 28.2078 19.3467 28.2078C19.0448 28.2078 18.8 28.4526 18.8 28.7544V29.5743C18.8 29.8762 19.0448 30.1209 19.3467 30.1209Z" fill="#794F23"/>
<path d="M23.4233 30.1209C23.7251 30.1209 23.9699 29.8762 23.9699 29.5743V28.7544C23.9699 28.4526 23.7251 28.2078 23.4233 28.2078C23.1215 28.2078 22.8767 28.4526 22.8767 28.7544V29.5743C22.8767 29.8762 23.1215 30.1209 23.4233 30.1209Z" fill="#794F23"/>
<path d="M31.5769 30.1209C31.8787 30.1209 32.1235 29.8762 32.1235 29.5743V28.7544C32.1235 28.4526 31.8787 28.2078 31.5769 28.2078C31.2751 28.2078 31.0303 28.4526 31.0303 28.7544V29.5743C31.0303 29.8762 31.2751 30.1209 31.5769 30.1209Z" fill="#794F23"/>
<path d="M27.5002 30.1209C27.8021 30.1209 28.0468 29.8762 28.0468 29.5743V28.7544C28.0468 28.4526 27.8021 28.2078 27.5002 28.2078C27.1984 28.2078 26.9536 28.4526 26.9536 28.7544V29.5743C26.9536 29.8762 27.1984 30.1209 27.5002 30.1209Z" fill="#794F23"/>
<path d="M35.6538 30.1209C35.9556 30.1209 36.2004 29.8762 36.2004 29.5743V28.7544C36.2004 28.4526 35.9556 28.2078 35.6538 28.2078C35.352 28.2078 35.1072 28.4526 35.1072 28.7544V29.5743C35.1072 29.8762 35.352 30.1209 35.6538 30.1209Z" fill="#794F23"/>
<path d="M24.6987 21.3752V20.5553C24.6987 20.2535 24.4539 20.0087 24.1521 20.0087C23.8503 20.0087 23.6055 20.2535 23.6055 20.5553V21.3752C23.6055 21.677 23.8503 21.9218 24.1521 21.9218C24.4539 21.9218 24.6987 21.6771 24.6987 21.3752Z" fill="#794F23"/>
<path d="M30.8479 21.9218C31.1497 21.9218 31.3945 21.677 31.3945 21.3752V20.5553C31.3945 20.2535 31.1497 20.0087 30.8479 20.0087C30.5461 20.0087 30.3013 20.2535 30.3013 20.5553V21.3752C30.3013 21.6771 30.5461 21.9218 30.8479 21.9218Z" fill="#794F23"/>
<path d="M48.4534 21.193H46.6784L43.4585 11.8555C43.3825 11.6351 43.175 11.4871 42.9417 11.4871C42.7085 11.4871 42.501 11.6351 42.425 11.8555L39.205 21.193H37.4301C37.1283 21.193 36.8835 21.4378 36.8835 21.7396V24.746C36.8835 25.0478 37.1283 25.2926 37.4301 25.2926H38.0678V26.6591H33.3761V19.2799H34.0594C34.3612 19.2799 34.606 19.0351 34.606 18.7333V14.7249C34.606 14.423 34.3612 14.1782 34.0594 14.1782H31.9641C31.6622 14.1782 31.4175 14.423 31.4175 14.7249V15.4537H30.5975V14.7249C30.5975 14.423 30.3528 14.1782 30.0509 14.1782H24.9493C24.6475 14.1782 24.4027 14.423 24.4027 14.7249V15.4537H23.5828V14.7249C23.5828 14.423 23.3381 14.1782 23.0361 14.1782H20.9408C20.639 14.1782 20.3942 14.423 20.3942 14.7249V18.7333C20.3942 19.0351 20.639 19.2799 20.9408 19.2799H21.6241V26.6591H16.9324V25.2926H17.5701C17.8719 25.2926 18.1167 25.0478 18.1167 24.746V21.7396C18.1167 21.4378 17.8719 21.193 17.5701 21.193H15.7953L12.5752 11.8555C12.4992 11.6351 12.2916 11.4871 12.0585 11.4871C11.8252 11.4871 11.6177 11.6351 11.5417 11.8555L8.32168 21.193H6.54685C6.24503 21.193 6.00024 21.4378 6.00024 21.7396V24.746C6.00024 25.0478 6.24503 25.2926 6.54685 25.2926H7.18456V28.216C6.9261 28.2595 6.72905 28.4837 6.72905 28.7544C6.72905 29.0252 6.9261 29.2494 7.18456 29.2928V42.9662C7.18456 43.268 7.42935 43.5128 7.73117 43.5128H16.2491H16.3858H38.6144H38.7511H47.269C47.5709 43.5128 47.8157 43.268 47.8157 42.9662V29.2928C48.074 29.2494 48.2712 29.0252 48.2712 28.7544C48.2712 28.4837 48.074 28.2595 47.8157 28.216V25.2926H48.4534C48.7552 25.2926 49 25.0478 49 24.746V21.7396C49 21.4378 48.7553 21.193 48.4534 21.193ZM42.9417 13.7104L45.5221 21.1931H40.3614L42.9417 13.7104ZM29.0488 42.4196H25.9514V39.6866C25.9514 38.8326 26.6461 38.1378 27.5001 38.1378C28.3542 38.1378 29.0488 38.8326 29.0488 39.6866V42.4196ZM27.5001 37.0446C26.0433 37.0446 24.8582 38.2298 24.8582 39.6866V42.4196H16.9324V31.6697H38.0678V42.4196H30.142V39.6866C30.142 38.2298 28.9569 37.0446 27.5001 37.0446ZM21.4874 15.2715H22.4895V16.0003C22.4895 16.3021 22.7343 16.5469 23.0361 16.5469H24.9493C25.2512 16.5469 25.4959 16.3021 25.4959 16.0003V15.2715H29.5043V16.0003C29.5043 16.3021 29.7491 16.5469 30.0509 16.5469H31.9641C32.2659 16.5469 32.5107 16.3021 32.5107 16.0003V15.2715H33.5128V18.1867H32.8295H22.1707H21.4874V15.2715ZM22.7173 19.2799H32.2829V26.6591H30.568C29.9768 24.6073 29.1035 22.6091 27.969 20.7137C27.8703 20.5487 27.6922 20.4477 27.5 20.4477C27.3078 20.4477 27.1297 20.5487 27.031 20.7137C25.8966 22.6089 25.0234 24.6071 24.4322 26.6591H22.7173V19.2799ZM29.428 26.6591H25.5722C26.0461 25.0955 26.6921 23.5655 27.5001 22.093C28.3081 23.5657 28.9541 25.0956 29.428 26.6591ZM38.0678 27.7523V28.216C37.8095 28.2595 37.6123 28.4837 37.6123 28.7544C37.6123 29.0252 37.8095 29.2494 38.0678 29.2928V30.5764H16.9324V29.2928C17.1908 29.2494 17.3879 29.0252 17.3879 28.7544C17.3879 28.4837 17.1908 28.2595 16.9324 28.216V27.7523H38.0678ZM12.0585 13.7104L14.6388 21.1931H9.47812L12.0585 13.7104ZM7.09346 22.2862H17.0235V24.1994H16.3858H7.73117H7.09346V22.2862ZM15.8392 25.2926V28.2078H8.27777V25.2926H15.8392ZM8.27777 42.4196V29.301H15.8392V42.4196H8.27777ZM39.161 42.4196V29.301H46.7224V42.4196H39.161ZM46.7224 28.2078H39.161V25.2926H46.7224V28.2078ZM47.9067 24.1994H47.269H38.6144H37.9767V22.2862H47.9067V24.1994Z" fill="#794F23"/>
<path d="M40.8918 27.6612C41.1936 27.6612 41.4384 27.4164 41.4384 27.1146V26.2947C41.4384 25.9929 41.1936 25.7481 40.8918 25.7481C40.59 25.7481 40.3452 25.9929 40.3452 26.2947V27.1146C40.3452 27.4165 40.59 27.6612 40.8918 27.6612Z" fill="#794F23"/>
<path d="M44.9914 27.6612C45.2932 27.6612 45.538 27.4164 45.538 27.1146V26.2947C45.538 25.9929 45.2932 25.7481 44.9914 25.7481C44.6896 25.7481 44.4448 25.9929 44.4448 26.2947V27.1146C44.4448 27.4165 44.6896 27.6612 44.9914 27.6612Z" fill="#794F23"/>
<path d="M40.8918 30.3031C40.59 30.3031 40.3452 30.5479 40.3452 30.8497V31.6696C40.3452 31.9715 40.59 32.2163 40.8918 32.2163C41.1936 32.2163 41.4384 31.9715 41.4384 31.6696V30.8497C41.4384 30.5479 41.1937 30.3031 40.8918 30.3031Z" fill="#794F23"/>
<path d="M44.9914 30.3031C44.6896 30.3031 44.4448 30.5479 44.4448 30.8497V31.6696C44.4448 31.9715 44.6896 32.2163 44.9914 32.2163C45.2932 32.2163 45.538 31.9715 45.538 31.6696V30.8497C45.538 30.5479 45.2933 30.3031 44.9914 30.3031Z" fill="#794F23"/>
</svg>
