<svg width="44" height="44" viewBox="0 0 44 44" fill="none" xmlns="http://www.w3.org/2000/svg">
<circle cx="22" cy="22" r="22" fill="white"/>
<g clip-path="url(#clip0_39_381)">
<path d="M13.7698 19.2678C14.9096 15.8139 18.1554 13.3333 22 13.3333C24.0667 13.3333 25.9333 14.0667 27.4 15.2667L31.6667 11C29.0667 8.73334 25.7333 7.33334 22 7.33334C16.219 7.33334 11.2417 10.6313 8.84888 15.4612L13.7698 19.2678Z" fill="#EA4335"/>
<path d="M26.9386 29.3487C25.6066 30.2088 23.914 30.6667 21.9999 30.6667C18.1701 30.6667 14.9344 28.2051 13.7829 24.7719L8.8457 28.5205C11.2355 33.3589 16.2127 36.6667 21.9999 36.6667C25.5845 36.6667 29.0098 35.3924 31.575 32.9995L26.9386 29.3487Z" fill="#34A853"/>
<path d="M31.5751 32.9995C34.2579 30.497 36 26.7712 36 22C36 21.1333 35.8667 20.2 35.6667 19.3333H22V25H29.8667C29.4785 26.9056 28.4366 28.3815 26.9387 29.3487L31.5751 32.9995Z" fill="#4A90E2"/>
<path d="M13.7829 24.7719C13.4912 23.9022 13.3333 22.9702 13.3333 22C13.3333 21.0446 13.4865 20.1261 13.7697 19.2678L8.8488 15.4612C7.86686 17.4294 7.33325 19.6477 7.33325 22C7.33325 24.3461 7.87687 26.5591 8.84571 28.5206L13.7829 24.7719Z" fill="#FBBC05"/>
</g>
<defs>
<clipPath id="clip0_39_381">
<rect width="29.3333" height="29.3333" fill="white" transform="translate(7.33325 7.33334)"/>
</clipPath>
</defs>
</svg>
