<svg width="266" height="44" viewBox="0 0 266 44" fill="none" xmlns="http://www.w3.org/2000/svg">
<circle cx="22" cy="22" r="22" fill="white"/>
<g clip-path="url(#clip0_33_403)">
<path d="M13.7698 19.2678C14.9096 15.8139 18.1554 13.3333 22 13.3333C24.0667 13.3333 25.9333 14.0667 27.4 15.2667L31.6667 11C29.0667 8.73334 25.7333 7.33334 22 7.33334C16.219 7.33334 11.2417 10.6313 8.84888 15.4612L13.7698 19.2678Z" fill="#EA4335"/>
<path d="M26.9386 29.3487C25.6066 30.2088 23.914 30.6667 21.9999 30.6667C18.1701 30.6667 14.9344 28.2051 13.7829 24.7719L8.8457 28.5205C11.2355 33.3589 16.2127 36.6667 21.9999 36.6667C25.5845 36.6667 29.0098 35.3924 31.575 32.9995L26.9386 29.3487Z" fill="#34A853"/>
<path d="M31.5751 32.9995C34.2579 30.497 36 26.7712 36 22C36 21.1333 35.8667 20.2 35.6667 19.3333H22V25H29.8667C29.4785 26.9056 28.4366 28.3815 26.9387 29.3487L31.5751 32.9995Z" fill="#4A90E2"/>
<path d="M13.7829 24.7719C13.4912 23.9022 13.3333 22.9702 13.3333 22C13.3333 21.0446 13.4865 20.1261 13.7697 19.2678L8.8488 15.4612C7.86686 17.4294 7.33325 19.6477 7.33325 22C7.33325 24.3461 7.87687 26.5591 8.84571 28.5206L13.7829 24.7719Z" fill="#FBBC05"/>
</g>
<g clip-path="url(#clip1_33_403)">
<path d="M96 44C108.15 44 118 34.1503 118 22C118 9.84974 108.15 0 96 0C83.8497 0 74 9.84974 74 22C74 34.1503 83.8497 44 96 44Z" fill="#2787F5"/>
<path d="M99.9908 9H92.0092C84.7249 9 83 10.7249 83 18.0092V25.9908C83 33.2751 84.7249 35 92.0092 35H99.9908C107.275 35 109 33.2751 109 25.9908V18.0092C109 10.7249 107.257 9 99.9908 9ZM103.991 27.5503H102.099C101.383 27.5503 101.163 26.9816 99.8789 25.6789C98.7595 24.5978 98.2643 24.4497 97.987 24.4497C97.6016 24.4497 97.4914 24.5578 97.4914 25.0919V26.7984C97.4914 27.2573 97.3443 27.5324 96.1335 27.5324C94.1335 27.5324 91.9135 26.3216 90.3535 24.0643C88.0049 20.7616 87.3627 18.2843 87.3627 17.7708C87.3627 17.4957 87.4708 17.2389 88.0049 17.2389H89.8968C90.3741 17.2389 90.5573 17.4589 90.7405 17.973C91.6762 20.6703 93.2362 23.0373 93.8757 23.0373C94.1141 23.0373 94.2243 22.9292 94.2243 22.3216V19.5324C94.1508 18.2481 93.4719 18.1378 93.4719 17.6795C93.4719 17.4595 93.6551 17.2389 93.9492 17.2389H96.9222C97.3259 17.2389 97.4724 17.4589 97.4724 17.9362V21.6973C97.4724 22.1011 97.6557 22.2476 97.7659 22.2476C98.0043 22.2476 98.2065 22.1005 98.6465 21.6605C100.004 20.1378 100.977 17.7892 100.977 17.7892C101.105 17.5141 101.325 17.2573 101.803 17.2573H103.695C104.263 17.2573 104.392 17.5508 104.263 17.9546C104.025 19.0557 101.713 22.3216 101.713 22.3216C101.511 22.6519 101.438 22.7989 101.713 23.1654C101.915 23.4405 102.578 24.0092 103.016 24.5232C103.823 25.4422 104.447 26.2114 104.612 26.7432C104.798 27.2751 104.523 27.5503 103.991 27.5503Z" fill="white"/>
</g>
<g clip-path="url(#clip2_33_403)">
<path d="M170 43.9552C182.126 43.9552 191.955 34.1255 191.955 22C191.955 9.87447 182.126 0.0447998 170 0.0447998C157.875 0.0447998 148.045 9.87447 148.045 22C148.045 34.1255 157.875 43.9552 170 43.9552Z" fill="#FC3F1D"/>
<path d="M177.944 35.7826H173.125V11.9452H170.978C167.042 11.9452 164.981 13.9129 164.981 16.8504C164.981 20.1829 166.402 21.727 169.344 23.6948L171.768 25.3285L164.801 35.7785H159.619L165.889 26.4489C162.284 23.8741 160.255 21.3604 160.255 17.1192C160.255 11.8189 163.95 8.21332 170.945 8.21332H177.912V35.7744H177.944V35.7826Z" fill="white"/>
</g>
<g clip-path="url(#clip3_33_403)">
<path d="M265.987 0H222.013C222.006 0 222 0.00577133 222 0.0128906V43.9871C222 43.9942 222.006 44 222.013 44H265.987C265.994 44 266 43.9942 266 43.9871V0.0128906C266 0.00577133 265.994 0 265.987 0Z" fill="#EE8208"/>
<path d="M244 11.7734C244.832 11.7734 245.63 12.1039 246.218 12.6922C246.806 13.2804 247.137 14.0782 247.137 14.9102C247.137 15.7421 246.806 16.5399 246.218 17.1282C245.63 17.7164 244.832 18.0469 244 18.0469C243.168 18.0469 242.37 17.7164 241.782 17.1282C241.194 16.5399 240.863 15.7421 240.863 14.9102C240.863 14.0782 241.194 13.2804 241.782 12.6922C242.37 12.1039 243.168 11.7734 244 11.7734ZM244 22.4727C248.177 22.4727 251.562 19.0781 251.562 14.9102C251.562 10.7422 248.168 7.34766 244 7.34766C239.832 7.34766 236.437 10.7422 236.437 14.9102C236.437 19.0781 239.832 22.4727 244 22.4727ZM247.059 28.6516C248.611 28.3005 250.093 27.6904 251.442 26.8469C251.688 26.6911 251.901 26.4885 252.069 26.2504C252.237 26.0124 252.356 25.7437 252.42 25.4596C252.483 25.1755 252.491 24.8816 252.441 24.5947C252.391 24.3078 252.285 24.0335 252.13 23.7875C251.974 23.5415 251.771 23.3285 251.533 23.1608C251.295 22.9931 251.026 22.8739 250.742 22.8101C250.458 22.7463 250.164 22.739 249.877 22.7887C249.591 22.8385 249.316 22.9443 249.07 23.1C247.542 24.055 245.776 24.5613 243.974 24.5613C242.172 24.5613 240.406 24.055 238.878 23.1C238.632 22.9443 238.358 22.8385 238.071 22.7887C237.784 22.739 237.49 22.7463 237.206 22.8101C236.922 22.8739 236.653 22.9931 236.415 23.1608C236.177 23.3285 235.974 23.5415 235.819 23.7875C235.663 24.0335 235.557 24.3078 235.507 24.5947C235.458 24.8816 235.465 25.1755 235.529 25.4596C235.593 25.7437 235.712 26.0124 235.88 26.2504C236.047 26.4885 236.26 26.6911 236.506 26.8469C237.873 27.7062 239.342 28.3078 240.889 28.6516L236.678 32.8883C236.262 33.3042 236.028 33.8684 236.028 34.4566C236.028 35.0449 236.262 35.609 236.678 36.025C237.094 36.441 237.658 36.6746 238.246 36.6746C238.835 36.6746 239.399 36.441 239.815 36.025L243.974 31.857L248.134 36.0164C248.339 36.2225 248.584 36.3859 248.853 36.4974C249.122 36.609 249.411 36.6664 249.702 36.6664C249.993 36.6664 250.282 36.609 250.551 36.4974C250.82 36.3859 251.064 36.2225 251.27 36.0164C251.476 35.8105 251.64 35.566 251.751 35.2969C251.863 35.0278 251.92 34.7393 251.92 34.448C251.92 34.1567 251.863 33.8683 251.751 33.5992C251.64 33.3301 251.476 33.0856 251.27 32.8797L247.034 28.643" fill="white"/>
</g>
<defs>
<clipPath id="clip0_33_403">
<rect width="29.3333" height="29.3333" fill="white" transform="translate(7.33325 7.33334)"/>
</clipPath>
<clipPath id="clip1_33_403">
<rect width="44" height="44" fill="white" transform="translate(74)"/>
</clipPath>
<clipPath id="clip2_33_403">
<rect width="44" height="44" fill="white" transform="translate(148)"/>
</clipPath>
<clipPath id="clip3_33_403">
<rect x="222" width="44" height="44" rx="22" fill="white"/>
</clipPath>
</defs>
</svg>
