<svg width="30" height="30" viewBox="0 0 30 30" fill="none" xmlns="http://www.w3.org/2000/svg">
<path d="M14.8661 14.2979V14.1979H14.7661H13.3618H13.2618V14.2979V15.2341V15.3341H13.3618H14.7661H14.8661V15.2341V14.2979Z" fill="#C7731C" stroke="#C7731C" stroke-width="0.2"/>
<path d="M26.0998 25.8999V25.9999V26.9356V27.0356H25.9998H22.9478C22.9021 27.0562 22.8511 27.0735 22.7944 27.0807L22.7942 27.0807L12.03 28.4356C12.0297 28.4356 12.0295 28.4357 12.0292 28.4357C12.0038 28.4393 11.9795 28.4403 11.9574 28.4403C11.8198 28.4403 11.6863 28.3903 11.5819 28.2984M26.0998 25.8999L11.648 28.2233M26.0998 25.8999H25.9998H23.2913M26.0998 25.8999H23.2913M11.5819 28.2984L11.648 28.2233M11.5819 28.2984C11.5819 28.2984 11.5819 28.2984 11.5819 28.2984L11.648 28.2233M11.5819 28.2984C11.4592 28.1904 11.3893 28.0353 11.3893 27.8723V27.5042M11.648 28.2233C11.5469 28.1344 11.4893 28.0066 11.4893 27.8723V27.5042H11.3893M11.3893 27.5042V27.4042H6.80849H4.1H4V27.3042V26.568V26.468H4.1H6.24041V26.368M11.3893 27.5042H6.80849H4H3.9V27.4042V26.468V26.368H4H6.24041M6.24041 26.368V3.06396C6.24041 2.75041 6.49434 2.49588 6.80849 2.49588H11.3893L6.24041 26.368ZM22.7818 26.9815L12.0159 28.3366L22.7818 26.9815ZM22.7818 26.9815C22.8332 26.9749 22.8805 26.9576 22.9255 26.9356H25.8998H25.9998V26.8356L22.7818 26.9815ZM23.2913 25.8999V3.93459C23.2913 3.65725 23.0907 3.42044 22.8171 3.37444L22.817 3.37444L12.0513 1.56767C12.0513 1.56767 12.0512 1.56766 12.0512 1.56765L12.0512 1.56765L23.2913 25.8999ZM7.37657 26.368V3.63204H11.3893V26.368H7.37657ZM12.5255 26.9361V26.468V3.06396V2.79925L22.1552 4.4152V25.9999V26.0166L12.5255 27.2285V26.9361Z" fill="#C7731C" stroke="#C7731C" stroke-width="0.2"/>
</svg>
