<svg width="30" height="30" viewBox="0 0 30 30" fill="none" xmlns="http://www.w3.org/2000/svg">
<g clip-path="url(#clip0_12_167)">
<path d="M24.225 11.5858L18.4423 5.84237C18.3485 5.74885 18.221 5.69665 18.0888 5.69746C17.9562 5.69798 17.8297 5.75101 17.7364 5.84469L4.77514 18.895C4.71378 18.9569 4.66941 19.0338 4.64688 19.1182L2.53827 27.0237C2.49228 27.1965 2.54217 27.3806 2.66892 27.5067C2.69984 27.5375 2.73408 27.5635 2.77105 27.5848C2.88505 27.6506 3.02236 27.6697 3.15248 27.6339L11.0435 25.4715C11.1276 25.4486 11.2041 25.4038 11.2657 25.342L24.2272 12.2918C24.4218 12.0962 24.4202 11.7801 24.225 11.5858ZM3.72706 26.4413L4.37432 24.0144L6.14039 25.7799L3.72706 26.4413ZM10.6514 24.5438L7.24858 25.4763L4.67159 22.9L5.57725 19.5045L18.0929 6.90273L23.1671 11.942L10.6514 24.5438Z" fill="#4E3114"/>
<path d="M28.1229 7.77717L22.2872 1.9812C22.1934 1.88714 22.0662 1.83504 21.9337 1.83628C21.8012 1.8368 21.6746 1.88983 21.5813 1.98351L19.1815 4.40034C18.9872 4.59604 18.988 4.91237 19.1839 5.10648L25.0195 10.9023C25.0502 10.933 25.0846 10.9591 25.1217 10.9805C25.1973 11.0242 25.2839 11.0477 25.3731 11.0474C25.5057 11.0468 25.6325 10.9939 25.7257 10.8997L28.1253 8.48275C28.3192 8.28734 28.3183 7.97103 28.1229 7.77717ZM25.3687 9.84195L20.2414 4.74997L21.9379 3.04157L27.0654 8.13365L25.3687 9.84195Z" fill="#4E3114"/>
<path d="M10.8259 20.7605C10.8572 20.7915 10.8917 20.8176 10.9282 20.8387C11.1196 20.9492 11.3685 20.9223 11.5317 20.7581L20.0534 12.1781C20.2479 11.9825 20.2464 11.6664 20.0511 11.472C19.8561 11.2795 19.5393 11.2784 19.3452 11.4742L10.8235 20.0543C10.6291 20.25 10.63 20.5663 10.8259 20.7605Z" fill="#4E3114"/>
</g>
<defs>
<clipPath id="clip0_12_167">
<rect width="30" height="30" fill="white"/>
</clipPath>
</defs>
</svg>
