<svg width="25" height="25" viewBox="0 0 25 25" fill="none" xmlns="http://www.w3.org/2000/svg">
<path d="M22.4316 21.3184L18.2031 17.0996C19.6955 15.3228 20.4443 13.0385 20.2934 10.723C20.1425 8.40759 19.1036 6.23977 17.3932 4.67173C15.6828 3.10368 13.4331 2.25648 11.1133 2.30681C8.79346 2.35714 6.58262 3.30112 4.94187 4.94187C3.30112 6.58263 2.35714 8.79346 2.30681 11.1133C2.25648 13.4331 3.10368 15.6828 4.67173 17.3932C6.23977 19.1036 8.40758 20.1425 10.723 20.2934C13.0385 20.4443 15.3228 19.6955 17.0996 18.2031L21.3184 22.4316C21.4677 22.576 21.6673 22.6567 21.875 22.6567C22.0827 22.6567 22.2823 22.576 22.4316 22.4316C22.5783 22.2835 22.6606 22.0835 22.6606 21.875C22.6606 21.6665 22.5783 21.4665 22.4316 21.3184ZM3.90625 11.3281C3.90625 9.86022 4.34153 8.42527 5.15706 7.20475C5.97259 5.98423 7.13172 5.03295 8.4879 4.47121C9.84407 3.90946 11.3364 3.76248 12.7761 4.04886C14.2158 4.33523 15.5382 5.0421 16.5762 6.08007C17.6141 7.11803 18.321 8.44049 18.6074 9.88019C18.8938 11.3199 18.7468 12.8122 18.185 14.1684C17.6233 15.5245 16.672 16.6837 15.4515 17.4992C14.231 18.3147 12.796 18.75 11.3281 18.75C9.36051 18.7474 7.47423 17.9646 6.08292 16.5733C4.69161 15.182 3.90883 13.2957 3.90625 11.3281Z" fill="#EFCD9B"/>
</svg>
