<svg width="30" height="30" viewBox="0 0 30 30" fill="none" xmlns="http://www.w3.org/2000/svg">
<path d="M22.9655 18.1353C21.1871 18.1353 19.6162 19.0174 18.6943 20.3554L11.8041 16.8445C12.0393 16.2737 12.1688 15.6512 12.1688 15.0001C12.1688 14.3489 12.0393 13.7264 11.8041 13.1556L18.6943 9.64474C19.6162 10.9827 21.1871 11.8648 22.9655 11.8648C25.7939 11.8648 28.1 9.63265 28.1 6.88246C28.1 4.13211 25.7939 1.9 22.9655 1.9C20.1372 1.9 17.8311 4.13211 17.8311 6.88235C17.8311 7.53354 17.9606 8.15601 18.1958 8.72679L11.3056 12.2377C10.3837 10.8997 8.81286 10.0176 7.03442 10.0176C4.20614 10.0176 1.9 12.2498 1.9 15C1.9 17.7502 4.20614 19.9824 7.03442 19.9824C8.81286 19.9824 10.3838 19.1003 11.3056 17.7623L18.1958 21.2732C17.9606 21.844 17.8311 22.4665 17.8311 23.1176C17.8311 25.8679 20.1372 28.1 22.9655 28.1C25.7939 28.1 28.1 25.8679 28.1 23.1176C28.1 20.3675 25.7939 18.1353 22.9655 18.1353ZM22.9655 2.93871C25.2124 2.93871 27.0352 4.71077 27.0352 6.88235C27.0352 9.05388 25.2124 10.8259 22.9655 10.8259C20.7187 10.8259 18.8959 9.05388 18.8959 6.88235C18.8959 4.71077 20.7187 2.93871 22.9655 2.93871ZM7.03437 18.9436C4.78758 18.9436 2.96479 17.1716 2.96479 15C2.96479 12.8284 4.78758 11.0564 7.03437 11.0564C9.28115 11.0564 11.1039 12.8284 11.1039 15C11.1039 17.1716 9.28115 18.9436 7.03437 18.9436ZM22.9655 27.0613C20.7187 27.0613 18.8959 25.2892 18.8959 23.1176C18.8959 20.9461 20.7187 19.1741 22.9655 19.1741C25.2124 19.1741 27.0352 20.9461 27.0352 23.1176C27.0352 25.2892 25.2124 27.0613 22.9655 27.0613Z" fill="#4E3114" stroke="#4E3114" stroke-width="0.2"/>
</svg>
