<svg width="315" height="55" viewBox="0 0 315 55" fill="none" xmlns="http://www.w3.org/2000/svg">
<path d="M10.009 27.6612C10.3108 27.6612 10.5556 27.4164 10.5556 27.1146V26.2947C10.5556 25.9929 10.3108 25.7481 10.009 25.7481C9.70719 25.7481 9.4624 25.9929 9.4624 26.2947V27.1146C9.4624 27.4165 9.70719 27.6612 10.009 27.6612Z" fill="#4E3114"/>
<path d="M14.1081 27.6612C14.4099 27.6612 14.6547 27.4164 14.6547 27.1146V26.2947C14.6547 25.9929 14.4099 25.7481 14.1081 25.7481C13.8063 25.7481 13.5615 25.9929 13.5615 26.2947V27.1146C13.5615 27.4165 13.8063 27.6612 14.1081 27.6612Z" fill="#4E3114"/>
<path d="M10.009 30.3031C9.70719 30.3031 9.4624 30.5479 9.4624 30.8497V31.6696C9.4624 31.9715 9.70719 32.2163 10.009 32.2163C10.3108 32.2163 10.5556 31.9715 10.5556 31.6696V30.8497C10.5556 30.5479 10.3108 30.3031 10.009 30.3031Z" fill="#4E3114"/>
<path d="M14.1081 30.3031C13.8063 30.3031 13.5615 30.5479 13.5615 30.8497V31.6696C13.5615 31.9715 13.8063 32.2163 14.1081 32.2163C14.4099 32.2163 14.6547 31.9715 14.6547 31.6696V30.8497C14.6547 30.5479 14.4099 30.3031 14.1081 30.3031Z" fill="#4E3114"/>
<path d="M19.3469 32.9451C19.0451 32.9451 18.8003 33.1899 18.8003 33.4917V34.3116C18.8003 34.6134 19.0451 34.8582 19.3469 34.8582C19.6487 34.8582 19.8935 34.6134 19.8935 34.3116V33.4917C19.8935 33.1899 19.6487 32.9451 19.3469 32.9451Z" fill="#4E3114"/>
<path d="M23.4236 32.9451C23.1217 32.9451 22.877 33.1899 22.877 33.4917V34.3116C22.877 34.6134 23.1217 34.8582 23.4236 34.8582C23.7254 34.8582 23.9702 34.6134 23.9702 34.3116V33.4917C23.9702 33.1899 23.7254 32.9451 23.4236 32.9451Z" fill="#4E3114"/>
<path d="M31.5769 34.8582C31.8787 34.8582 32.1235 34.6134 32.1235 34.3116V33.4917C32.1235 33.1899 31.8787 32.9451 31.5769 32.9451C31.2751 32.9451 31.0303 33.1899 31.0303 33.4917V34.3116C31.0303 34.6135 31.2751 34.8582 31.5769 34.8582Z" fill="#4E3114"/>
<path d="M27.5002 32.9451C27.1984 32.9451 26.9536 33.1899 26.9536 33.4917V34.3116C26.9536 34.6134 27.1984 34.8582 27.5002 34.8582C27.8021 34.8582 28.0468 34.6134 28.0468 34.3116V33.4917C28.0468 33.1899 27.8021 32.9451 27.5002 32.9451Z" fill="#4E3114"/>
<path d="M35.654 34.8582C35.9558 34.8582 36.2006 34.6134 36.2006 34.3116V33.4917C36.2006 33.1899 35.9558 32.9451 35.654 32.9451C35.3522 32.9451 35.1074 33.1899 35.1074 33.4917V34.3116C35.1074 34.6135 35.3522 34.8582 35.654 34.8582Z" fill="#4E3114"/>
<path d="M19.3469 36.4069C19.0451 36.4069 18.8003 36.6517 18.8003 36.9535V37.7734C18.8003 38.0753 19.0451 38.32 19.3469 38.32C19.6487 38.32 19.8935 38.0753 19.8935 37.7734V36.9535C19.8935 36.6517 19.6487 36.4069 19.3469 36.4069Z" fill="#4E3114"/>
<path d="M23.4236 36.4069C23.1217 36.4069 22.877 36.6517 22.877 36.9535V37.7734C22.877 38.0753 23.1217 38.32 23.4236 38.32C23.7254 38.32 23.9702 38.0753 23.9702 37.7734V36.9535C23.9702 36.6517 23.7254 36.4069 23.4236 36.4069Z" fill="#4E3114"/>
<path d="M31.5769 38.32C31.8787 38.32 32.1235 38.0753 32.1235 37.7734V36.9535C32.1235 36.6517 31.8787 36.4069 31.5769 36.4069C31.2751 36.4069 31.0303 36.6517 31.0303 36.9535V37.7734C31.0303 38.0753 31.2751 38.32 31.5769 38.32Z" fill="#4E3114"/>
<path d="M35.654 38.32C35.9558 38.32 36.2006 38.0753 36.2006 37.7734V36.9535C36.2006 36.6517 35.9558 36.4069 35.654 36.4069C35.3522 36.4069 35.1074 36.6517 35.1074 36.9535V37.7734C35.1074 38.0753 35.3522 38.32 35.654 38.32Z" fill="#4E3114"/>
<path d="M19.3469 30.1209C19.6487 30.1209 19.8935 29.8762 19.8935 29.5743V28.7544C19.8935 28.4526 19.6487 28.2078 19.3469 28.2078C19.0451 28.2078 18.8003 28.4526 18.8003 28.7544V29.5743C18.8003 29.8762 19.0451 30.1209 19.3469 30.1209Z" fill="#4E3114"/>
<path d="M23.4236 30.1209C23.7254 30.1209 23.9702 29.8762 23.9702 29.5743V28.7544C23.9702 28.4526 23.7254 28.2078 23.4236 28.2078C23.1217 28.2078 22.877 28.4526 22.877 28.7544V29.5743C22.877 29.8762 23.1217 30.1209 23.4236 30.1209Z" fill="#4E3114"/>
<path d="M31.5769 30.1209C31.8787 30.1209 32.1235 29.8762 32.1235 29.5743V28.7544C32.1235 28.4526 31.8787 28.2078 31.5769 28.2078C31.2751 28.2078 31.0303 28.4526 31.0303 28.7544V29.5743C31.0303 29.8762 31.2751 30.1209 31.5769 30.1209Z" fill="#4E3114"/>
<path d="M27.5002 30.1209C27.8021 30.1209 28.0468 29.8762 28.0468 29.5743V28.7544C28.0468 28.4526 27.8021 28.2078 27.5002 28.2078C27.1984 28.2078 26.9536 28.4526 26.9536 28.7544V29.5743C26.9536 29.8762 27.1984 30.1209 27.5002 30.1209Z" fill="#4E3114"/>
<path d="M35.654 30.1209C35.9558 30.1209 36.2006 29.8762 36.2006 29.5743V28.7544C36.2006 28.4526 35.9558 28.2078 35.654 28.2078C35.3522 28.2078 35.1074 28.4526 35.1074 28.7544V29.5743C35.1074 29.8762 35.3522 30.1209 35.654 30.1209Z" fill="#4E3114"/>
<path d="M24.6987 21.3752V20.5553C24.6987 20.2535 24.4539 20.0087 24.1521 20.0087C23.8503 20.0087 23.6055 20.2535 23.6055 20.5553V21.3752C23.6055 21.677 23.8503 21.9218 24.1521 21.9218C24.4539 21.9218 24.6987 21.6771 24.6987 21.3752Z" fill="#4E3114"/>
<path d="M30.8484 21.9218C31.1502 21.9218 31.395 21.677 31.395 21.3752V20.5553C31.395 20.2535 31.1502 20.0087 30.8484 20.0087C30.5465 20.0087 30.3018 20.2535 30.3018 20.5553V21.3752C30.3018 21.6771 30.5465 21.9218 30.8484 21.9218Z" fill="#4E3114"/>
<path d="M48.4536 21.193H46.6787L43.4587 11.8555C43.3827 11.6351 43.1752 11.4871 42.942 11.4871C42.7088 11.4871 42.5012 11.6351 42.4253 11.8555L39.2053 21.193H37.4304C37.1286 21.193 36.8838 21.4378 36.8838 21.7396V24.746C36.8838 25.0478 37.1286 25.2926 37.4304 25.2926H38.0681V26.6591H33.3764V19.2799H34.0596C34.3614 19.2799 34.6062 19.0351 34.6062 18.7333V14.7249C34.6062 14.423 34.3614 14.1782 34.0596 14.1782H31.9643C31.6625 14.1782 31.4177 14.423 31.4177 14.7249V15.4537H30.5978V14.7249C30.5978 14.423 30.353 14.1782 30.0512 14.1782H24.9495C24.6477 14.1782 24.4029 14.423 24.4029 14.7249V15.4537H23.583V14.7249C23.583 14.423 23.3383 14.1782 23.0364 14.1782H20.9411C20.6393 14.1782 20.3945 14.423 20.3945 14.7249V18.7333C20.3945 19.0351 20.6393 19.2799 20.9411 19.2799H21.6243V26.6591H16.9326V25.2926H17.5703C17.8721 25.2926 18.1169 25.0478 18.1169 24.746V21.7396C18.1169 21.4378 17.8721 21.193 17.5703 21.193H15.7955L12.5754 11.8555C12.4995 11.6351 12.2918 11.4871 12.0587 11.4871C11.8255 11.4871 11.618 11.6351 11.542 11.8555L8.32193 21.193H6.54709C6.24528 21.193 6.00049 21.4378 6.00049 21.7396V24.746C6.00049 25.0478 6.24528 25.2926 6.54709 25.2926H7.1848V28.216C6.92635 28.2595 6.7293 28.4837 6.7293 28.7544C6.7293 29.0252 6.92635 29.2494 7.1848 29.2928V42.9662C7.1848 43.268 7.42959 43.5128 7.73141 43.5128H16.2494H16.386H38.6147H38.7513H47.2693C47.5711 43.5128 47.8159 43.268 47.8159 42.9662V29.2928C48.0743 29.2494 48.2714 29.0252 48.2714 28.7544C48.2714 28.4837 48.0743 28.2595 47.8159 28.216V25.2926H48.4536C48.7554 25.2926 49.0002 25.0478 49.0002 24.746V21.7396C49.0002 21.4378 48.7555 21.193 48.4536 21.193ZM42.942 13.7104L45.5223 21.1931H40.3616L42.942 13.7104ZM29.0491 42.4196H25.9516V39.6866C25.9516 38.8326 26.6464 38.1378 27.5003 38.1378C28.3544 38.1378 29.0491 38.8326 29.0491 39.6866V42.4196ZM27.5003 37.0446C26.0436 37.0446 24.8584 38.2298 24.8584 39.6866V42.4196H16.9326V31.6697H38.0681V42.4196H30.1423V39.6866C30.1423 38.2298 28.9571 37.0446 27.5003 37.0446ZM21.4877 15.2715H22.4898V16.0003C22.4898 16.3021 22.7346 16.5469 23.0364 16.5469H24.9495C25.2514 16.5469 25.4961 16.3021 25.4961 16.0003V15.2715H29.5046V16.0003C29.5046 16.3021 29.7494 16.5469 30.0512 16.5469H31.9643C32.2661 16.5469 32.5109 16.3021 32.5109 16.0003V15.2715H33.513V18.1867H32.8298H22.1709H21.4877V15.2715ZM22.7175 19.2799H32.2832V26.6591H30.5683C29.977 24.6073 29.1037 22.6091 27.9692 20.7137C27.8706 20.5487 27.6925 20.4477 27.5003 20.4477C27.308 20.4477 27.1299 20.5487 27.0313 20.7137C25.8969 22.6089 25.0237 24.6071 24.4324 26.6591H22.7175V19.2799ZM29.4282 26.6591H25.5725C26.0464 25.0955 26.6924 23.5655 27.5003 22.093C28.3083 23.5657 28.9543 25.0956 29.4282 26.6591ZM38.0681 27.7523V28.216C37.8097 28.2595 37.6126 28.4837 37.6126 28.7544C37.6126 29.0252 37.8097 29.2494 38.0681 29.2928V30.5764H16.9326V29.2928C17.1911 29.2494 17.3881 29.0252 17.3881 28.7544C17.3881 28.4837 17.1911 28.2595 16.9326 28.216V27.7523H38.0681ZM12.0587 13.7104L14.6391 21.1931H9.47836L12.0587 13.7104ZM7.0937 22.2862H17.0237V24.1994H16.386H7.73141H7.0937V22.2862ZM15.8394 25.2926V28.2078H8.27802V25.2926H15.8394ZM8.27802 42.4196V29.301H15.8394V42.4196H8.27802ZM39.1613 42.4196V29.301H46.7227V42.4196H39.1613ZM46.7227 28.2078H39.1613V25.2926H46.7227V28.2078ZM47.907 24.1994H47.2693H38.6147H37.977V22.2862H47.907V24.1994Z" fill="#4E3114"/>
<path d="M40.8923 27.6612C41.1941 27.6612 41.4389 27.4164 41.4389 27.1146V26.2947C41.4389 25.9929 41.1941 25.7481 40.8923 25.7481C40.5905 25.7481 40.3457 25.9929 40.3457 26.2947V27.1146C40.3457 27.4165 40.5905 27.6612 40.8923 27.6612Z" fill="#4E3114"/>
<path d="M44.9919 27.6612C45.2937 27.6612 45.5385 27.4164 45.5385 27.1146V26.2947C45.5385 25.9929 45.2937 25.7481 44.9919 25.7481C44.6901 25.7481 44.4453 25.9929 44.4453 26.2947V27.1146C44.4453 27.4165 44.6901 27.6612 44.9919 27.6612Z" fill="#4E3114"/>
<path d="M40.8923 30.3031C40.5905 30.3031 40.3457 30.5479 40.3457 30.8497V31.6696C40.3457 31.9715 40.5905 32.2163 40.8923 32.2163C41.1941 32.2163 41.4389 31.9715 41.4389 31.6696V30.8497C41.4389 30.5479 41.1942 30.3031 40.8923 30.3031Z" fill="#4E3114"/>
<path d="M44.9919 30.3031C44.6901 30.3031 44.4453 30.5479 44.4453 30.8497V31.6696C44.4453 31.9715 44.6901 32.2163 44.9919 32.2163C45.2937 32.2163 45.5385 31.9715 45.5385 31.6696V30.8497C45.5385 30.5479 45.2938 30.3031 44.9919 30.3031Z" fill="#4E3114"/>
<path d="M172.758 13.7607C172.602 13.6134 172.399 13.5429 172.18 13.5506C171.408 13.5956 170.665 13.6181 169.971 13.6181C163.951 13.6181 161.036 11.9665 158.034 9.11306C157.735 8.82861 157.266 8.82861 156.966 9.11306C153.965 11.9658 151.05 13.6181 145.029 13.6181C144.335 13.6181 143.592 13.5956 142.82 13.5506C142.6 13.5437 142.399 13.615 142.243 13.7607C142.088 13.9087 142 14.1125 142 14.3256V30.3021C142 38.5605 150.912 44.7744 157.345 46.0841C157.396 46.095 157.448 46.1003 157.5 46.1003C157.552 46.1003 157.604 46.0949 157.655 46.0834C164.089 44.7744 173 38.559 173 30.3021V14.3256C173 14.1117 172.913 13.9079 172.758 13.7607ZM171.45 30.3021C171.45 37.67 163.4 43.2624 157.5 44.5325C151.6 43.2639 143.55 37.6699 143.55 30.3021V15.1393C150.682 15.4252 154.223 13.6971 157.5 10.7326C160.779 13.7 164.319 15.4252 171.45 15.1393V30.3021Z" fill="#794F23"/>
<line x1="167.505" y1="39.495" x2="142.505" y2="14.495" stroke="#794F23" stroke-width="1.4"/>
<g clip-path="url(#clip0_62_596)">
<path d="M291.71 20.447C290.612 19.7131 289.321 19.3214 288 19.3214C286.229 19.3214 284.53 20.0251 283.278 21.2775C282.025 22.53 281.321 24.2287 281.321 26C281.321 27.3209 281.713 28.6121 282.447 29.7104C283.181 30.8087 284.224 31.6647 285.444 32.1702C286.665 32.6757 288.007 32.8079 289.303 32.5502C290.598 32.2926 291.788 31.6565 292.722 30.7225C293.656 29.7884 294.293 28.5984 294.55 27.3029C294.808 26.0074 294.676 24.6646 294.17 23.4442C293.665 22.2239 292.809 21.1808 291.71 20.447ZM283.139 18.7246C284.578 17.7632 286.269 17.25 288 17.25C290.321 17.25 292.546 18.1719 294.187 19.8128C295.828 21.4538 296.75 23.6794 296.75 26C296.75 27.7306 296.237 29.4223 295.275 30.8612C294.314 32.3002 292.947 33.4217 291.348 34.0839C289.75 34.7462 287.99 34.9195 286.293 34.5819C284.596 34.2442 283.037 33.4109 281.813 32.1872C280.589 30.9635 279.756 29.4044 279.418 27.707C279.081 26.0097 279.254 24.2504 279.916 22.6515C280.578 21.0527 281.7 19.6861 283.139 18.7246Z" fill="#794F23" stroke="#F2E7DB" stroke-width="0.5"/>
<path d="M300.75 49.75H298.65V43.75C298.65 42.0229 297.936 40.3685 296.669 39.1504C295.403 37.9325 293.687 37.25 291.9 37.25H284.1C282.313 37.25 280.597 37.9325 279.331 39.1504C278.064 40.3685 277.35 42.0229 277.35 43.75V49.75H275.25V43.75C275.25 41.4989 276.18 39.3379 277.839 37.743C279.498 36.1478 281.75 35.25 284.1 35.25H291.9C294.25 35.25 296.502 36.1478 298.161 37.743C299.82 39.3379 300.75 41.4989 300.75 43.75V49.75Z" fill="#794F23" stroke="#F2E7DB" stroke-width="0.5"/>
<g clip-path="url(#clip1_62_596)">
<path d="M294.87 7.17789L291.641 9.41405L288.376 7.14958C288.075 6.95402 287.722 6.9463 287.438 7.14958L284.261 9.34457L281.136 7.15473C280.718 6.87167 280 6.9849 280 7.52013V16.4776C280 16.7658 280.297 17 280.663 17H295.337C295.703 17 296 16.7658 296 16.4776V7.54587C296 6.99776 295.314 6.87939 294.87 7.17789ZM294.674 15.75H288H281.326V8.79389L283.788 10.4536C284.114 10.6621 284.549 10.59 284.728 10.4562L287.909 8.25866L291.174 10.5231C291.432 10.7264 291.853 10.7264 292.111 10.5231L294.674 8.80676V15.75Z" fill="#794F23"/>
<path d="M294.87 7.17789L291.641 9.41405L288.376 7.14958C288.075 6.95402 287.722 6.9463 287.438 7.14958L284.261 9.34457L281.136 7.15473C280.718 6.87167 280 6.9849 280 7.52013V16.4776C280 16.7658 280.297 17 280.663 17H295.337C295.703 17 296 16.7658 296 16.4776V7.54587C296 6.99776 295.314 6.87939 294.87 7.17789ZM294.674 15.75H288H281.326V8.79389L283.788 10.4536C284.114 10.6621 284.549 10.59 284.728 10.4562L287.909 8.25866L291.174 10.5231C291.432 10.7264 291.853 10.7264 292.111 10.5231L294.674 8.80676V15.75Z" stroke="#F2E7DB"/>
</g>
</g>
<defs>
<clipPath id="clip0_62_596">
<rect width="55" height="55" fill="white" transform="translate(260)"/>
</clipPath>
<clipPath id="clip1_62_596">
<rect width="16" height="10" fill="white" transform="translate(280 7)"/>
</clipPath>
</defs>
</svg>
