<svg width="44" height="44" viewBox="0 0 44 44" fill="none" xmlns="http://www.w3.org/2000/svg">
<g clip-path="url(#clip0_33_400)">
<path d="M43.9871 0H0.0128906C0.00577133 0 0 0.00577133 0 0.0128906V43.9871C0 43.9942 0.00577133 44 0.0128906 44H43.9871C43.9942 44 44 43.9942 44 43.9871V0.0128906C44 0.00577133 43.9942 0 43.9871 0Z" fill="#EE8208"/>
<path d="M21.9999 11.7734C22.8319 11.7734 23.6297 12.1039 24.2179 12.6922C24.8062 13.2804 25.1367 14.0782 25.1367 14.9102C25.1367 15.7421 24.8062 16.5399 24.2179 17.1282C23.6297 17.7164 22.8319 18.0469 21.9999 18.0469C21.168 18.0469 20.3702 17.7164 19.7819 17.1282C19.1937 16.5399 18.8632 15.7421 18.8632 14.9102C18.8632 14.0782 19.1937 13.2804 19.7819 12.6922C20.3702 12.1039 21.168 11.7734 21.9999 11.7734ZM21.9999 22.4727C26.1765 22.4727 29.5624 19.0781 29.5624 14.9102C29.5624 10.7422 26.1679 7.34766 21.9999 7.34766C17.832 7.34766 14.4374 10.7422 14.4374 14.9102C14.4374 19.0781 17.832 22.4727 21.9999 22.4727ZM25.0593 28.6516C26.6113 28.3005 28.0929 27.6904 29.4421 26.8469C29.6882 26.6911 29.9011 26.4885 30.0688 26.2504C30.2365 26.0124 30.3557 25.7437 30.4195 25.4596C30.4834 25.1755 30.4906 24.8816 30.4409 24.5947C30.3911 24.3078 30.2854 24.0335 30.1296 23.7875C29.9739 23.5415 29.7712 23.3285 29.5332 23.1608C29.2952 22.9931 29.0264 22.8739 28.7423 22.8101C28.4582 22.7463 28.1644 22.739 27.8775 22.7887C27.5906 22.8385 27.3163 22.9443 27.0703 23.1C25.542 24.055 23.7762 24.5613 21.9742 24.5613C20.1721 24.5613 18.4063 24.055 16.8781 23.1C16.632 22.9443 16.3578 22.8385 16.0709 22.7887C15.784 22.739 15.4901 22.7463 15.206 22.8101C14.9219 22.8739 14.6532 22.9931 14.4151 23.1608C14.1771 23.3285 13.9744 23.5415 13.8187 23.7875C13.6629 24.0335 13.5572 24.3078 13.5074 24.5947C13.4577 24.8816 13.465 25.1755 13.5288 25.4596C13.5926 25.7437 13.7118 26.0124 13.8795 26.2504C14.0472 26.4885 14.2602 26.6911 14.5062 26.8469C15.8726 27.7062 17.3421 28.3078 18.889 28.6516L14.6781 32.8883C14.2621 33.3042 14.0284 33.8684 14.0284 34.4566C14.0284 35.0449 14.2621 35.609 14.6781 36.025C15.094 36.441 15.6582 36.6746 16.2464 36.6746C16.8347 36.6746 17.3988 36.441 17.8148 36.025L21.9742 31.857L26.1335 36.0164C26.3394 36.2225 26.5839 36.3859 26.853 36.4974C27.1221 36.609 27.4106 36.6664 27.7019 36.6664C27.9932 36.6664 28.2816 36.609 28.5508 36.4974C28.8199 36.3859 29.0644 36.2225 29.2703 36.0164C29.4763 35.8105 29.6398 35.566 29.7513 35.2969C29.8628 35.0278 29.9202 34.7393 29.9202 34.448C29.9202 34.1567 29.8628 33.8683 29.7513 33.5992C29.6398 33.3301 29.4763 33.0856 29.2703 32.8797L25.0335 28.643" fill="white"/>
</g>
<defs>
<clipPath id="clip0_33_400">
<rect width="44" height="44" rx="22" fill="white"/>
</clipPath>
</defs>
</svg>
