<svg width="55" height="55" viewBox="0 0 55 55" fill="none" xmlns="http://www.w3.org/2000/svg">
<path d="M42.7575 13.7607C42.6017 13.6134 42.3986 13.5429 42.1794 13.5506C41.4082 13.5956 40.665 13.6181 39.9706 13.6181C33.9504 13.6181 31.0357 11.9665 28.0341 9.11306C27.7348 8.82861 27.2653 8.82861 26.9661 9.11306C23.9645 11.9658 21.0498 13.6181 15.0288 13.6181C14.3351 13.6181 13.592 13.5956 12.8201 13.5506C12.5993 13.5437 12.3985 13.615 12.2428 13.7607C12.0878 13.9087 12.0002 14.1125 12.0002 14.3256V30.3021C12.0002 38.5605 20.9119 44.7744 27.3451 46.0841C27.3962 46.095 27.4482 46.1003 27.5001 46.1003C27.5521 46.1003 27.604 46.0949 27.6551 46.0834C34.0883 44.7744 43 38.559 43 30.3021V14.3256C43 14.1117 42.9125 13.9079 42.7575 13.7607ZM41.45 30.3021C41.45 37.67 33.4001 43.2624 27.5001 44.5325C21.6001 43.2639 13.5502 37.6699 13.5502 30.3021V15.1393C20.6818 15.4252 24.2227 13.6971 27.5001 10.7326C30.7784 13.7 34.3185 15.4252 41.45 15.1393V30.3021Z" fill="#794F23"/>
<line x1="37.505" y1="39.495" x2="12.505" y2="14.495" stroke="#794F23" stroke-width="1.4"/>
</svg>
