<svg width="55" height="55" viewBox="0 0 55 55" fill="none" xmlns="http://www.w3.org/2000/svg">
<path d="M31.7104 20.447C30.6121 19.7131 29.3209 19.3214 28 19.3214C26.2287 19.3214 24.53 20.0251 23.2775 21.2775C22.0251 22.53 21.3214 24.2287 21.3214 26C21.3214 27.3209 21.7131 28.6121 22.447 29.7104C23.1808 30.8087 24.2239 31.6647 25.4442 32.1702C26.6646 32.6757 28.0074 32.8079 29.3029 32.5502C30.5984 32.2926 31.7884 31.6565 32.7225 30.7225C33.6565 29.7884 34.2926 28.5984 34.5502 27.3029C34.8079 26.0074 34.6757 24.6646 34.1702 23.4442C33.6647 22.2239 32.8087 21.1808 31.7104 20.447ZM23.1388 18.7246C24.5777 17.7632 26.2694 17.25 28 17.25C30.3206 17.25 32.5462 18.1719 34.1872 19.8128C35.8281 21.4538 36.75 23.6794 36.75 26C36.75 27.7306 36.2368 29.4223 35.2754 30.8612C34.3139 32.3002 32.9473 33.4217 31.3485 34.0839C29.7496 34.7462 27.9903 34.9195 26.293 34.5819C24.5956 34.2442 23.0365 33.4109 21.8128 32.1872C20.5891 30.9635 19.7558 29.4044 19.4181 27.707C19.0805 26.0097 19.2538 24.2504 19.9161 22.6515C20.5783 21.0527 21.6998 19.6861 23.1388 18.7246Z" fill="#794F23"/>
<path d="M40.75 49.75H38.65V43.75C38.65 42.0229 37.9364 40.3685 36.6695 39.1504C35.4029 37.9325 33.6871 37.25 31.9 37.25H24.1C22.3129 37.25 20.5971 37.9325 19.3305 39.1504C18.0636 40.3685 17.35 42.0229 17.35 43.75V49.75H15.25V43.75C15.25 41.4989 16.1799 39.3379 17.8386 37.743C19.4976 36.1478 21.7497 35.25 24.1 35.25H31.9C34.2503 35.25 36.5024 36.1478 38.1614 37.743C39.8201 39.3379 40.75 41.4989 40.75 43.75V49.75Z" fill="#794F23"/>
<mask id="mask0_402_1911" style="mask-type:luminance" maskUnits="userSpaceOnUse" x="18" y="5" width="20" height="14">
<path d="M38 5.75H18V18.25H38V5.75Z" fill="white"/>
</mask>
<g mask="url(#mask0_402_1911)">
<path d="M34.8423 7.13639L34.8417 7.13678L31.6408 9.35322L28.404 7.10849L28.404 7.10847L28.4028 7.10768C28.0872 6.90222 27.7121 6.89237 27.4096 7.10868C27.4095 7.10876 27.4094 7.10884 27.4093 7.10892L24.2614 9.28366L21.165 7.11378L21.165 7.11378L21.1643 7.11333C20.943 6.96344 20.6441 6.91889 20.3989 6.98216C20.2758 7.01394 20.1636 7.07362 20.0817 7.16384C19.9993 7.25475 19.95 7.37424 19.95 7.52013V16.4776C19.95 16.8039 20.2812 17.05 20.6629 17.05H35.3371C35.7188 17.05 36.05 16.8039 36.05 16.4776V7.54587C36.05 7.39775 36.0034 7.27587 35.924 7.18272C35.845 7.09008 35.7359 7.02859 35.6146 6.9961C35.373 6.9314 35.0758 6.97947 34.8423 7.13639L34.8423 7.13639ZM32.1404 10.5636L34.6243 8.90041V15.7H28H21.3757V8.88789L23.7599 10.4951L23.7598 10.4951L23.7609 10.4957C23.9348 10.6068 24.1359 10.6423 24.3156 10.6332C24.4938 10.6242 24.6574 10.571 24.7573 10.4968L27.9085 8.31947L31.1442 10.5633C31.4198 10.7796 31.8646 10.7797 32.1404 10.5636Z" fill="#794F23" stroke="#794F23" stroke-width="0.1"/>
</g>
</svg>
