<svg width="44" height="44" viewBox="0 0 44 44" fill="none" xmlns="http://www.w3.org/2000/svg">
<g clip-path="url(#clip0_33_392)">
<path d="M22 44C34.1503 44 44 34.1503 44 22C44 9.84974 34.1503 0 22 0C9.84974 0 0 9.84974 0 22C0 34.1503 9.84974 44 22 44Z" fill="#2787F5"/>
<path d="M25.9908 9H18.0092C10.7249 9 9 10.7249 9 18.0092V25.9908C9 33.2751 10.7249 35 18.0092 35H25.9908C33.2751 35 35 33.2751 35 25.9908V18.0092C35 10.7249 33.2568 9 25.9908 9ZM29.9908 27.5503H28.0989C27.3832 27.5503 27.1632 26.9816 25.8789 25.6789C24.7595 24.5978 24.2643 24.4497 23.987 24.4497C23.6016 24.4497 23.4914 24.5578 23.4914 25.0919V26.7984C23.4914 27.2573 23.3443 27.5324 22.1335 27.5324C20.1335 27.5324 17.9135 26.3216 16.3535 24.0643C14.0049 20.7616 13.3627 18.2843 13.3627 17.7708C13.3627 17.4957 13.4708 17.2389 14.0049 17.2389H15.8968C16.3741 17.2389 16.5573 17.4589 16.7405 17.973C17.6762 20.6703 19.2362 23.0373 19.8757 23.0373C20.1141 23.0373 20.2243 22.9292 20.2243 22.3216V19.5324C20.1508 18.2481 19.4719 18.1378 19.4719 17.6795C19.4719 17.4595 19.6551 17.2389 19.9492 17.2389H22.9222C23.3259 17.2389 23.4724 17.4589 23.4724 17.9362V21.6973C23.4724 22.1011 23.6557 22.2476 23.7659 22.2476C24.0043 22.2476 24.2065 22.1005 24.6465 21.6605C26.0043 20.1378 26.9768 17.7892 26.9768 17.7892C27.1054 17.5141 27.3254 17.2573 27.8027 17.2573H29.6946C30.2632 17.2573 30.3919 17.5508 30.2632 17.9546C30.0249 19.0557 27.713 22.3216 27.713 22.3216C27.5114 22.6519 27.4378 22.7989 27.713 23.1654C27.9146 23.4405 28.5778 24.0092 29.0157 24.5232C29.8232 25.4422 30.447 26.2114 30.6119 26.7432C30.7984 27.2751 30.5227 27.5503 29.9908 27.5503Z" fill="white"/>
</g>
<defs>
<clipPath id="clip0_33_392">
<rect width="44" height="44" fill="white"/>
</clipPath>
</defs>
</svg>
