<svg width="44" height="44" viewBox="0 0 44 44" fill="none" xmlns="http://www.w3.org/2000/svg">
<g clip-path="url(#clip0_33_397)">
<path d="M22.0001 43.9552C34.1256 43.9552 43.9553 34.1255 43.9553 22C43.9553 9.87447 34.1256 0.0447998 22.0001 0.0447998C9.87459 0.0447998 0.0449219 9.87447 0.0449219 22C0.0449219 34.1255 9.87459 43.9552 22.0001 43.9552Z" fill="#FC3F1D"/>
<path d="M29.9443 35.7826H25.1247V11.9452H22.9777C19.0421 11.9452 16.9806 13.9129 16.9806 16.8504C16.9806 20.1829 18.4025 21.727 21.344 23.6948L23.768 25.3285L16.8014 35.7785H11.6191L17.8891 26.4489C14.2836 23.8741 12.2547 21.3604 12.2547 17.1192C12.2547 11.8189 15.9499 8.21332 22.9451 8.21332H29.9117V35.7744H29.9443V35.7826Z" fill="white"/>
</g>
<defs>
<clipPath id="clip0_33_397">
<rect width="44" height="44" fill="white"/>
</clipPath>
</defs>
</svg>
